<svg viewBox="85 100 95 115" fill="none" xmlns="http://www.w3.org/2000/svg">
<path d="M158.023 158.666C158.757 161.099 159.137 163.652 159.137 166.262C159.137 173.271 156.401 179.862 151.436 184.816C146.47 189.771 139.865 192.501 132.841 192.501C125.817 192.501 119.211 189.771 114.239 184.816C109.274 179.862 106.538 173.271 106.538 166.262C106.538 163.652 106.918 161.099 107.652 158.666L94.3138 145.363C90.9254 151.575 89 158.691 89 166.262C89 190.416 108.628 210 132.834 210C157.041 210 176.669 190.416 176.669 166.262C176.669 158.691 174.743 151.575 171.355 145.37L158.023 158.672V158.666Z" fill="#0675F9"/>
<path d="M124.069 175.008H141.606V147.171L171.45 117.38L159.049 105.006L132.847 131.163L106.62 105L94.2188 117.374L124.069 147.152V175.008Z" fill="#0675F9"/>
</svg>
